<?xml version="1.0" encoding="utf-8"?>
<!-- Generator: Adobe Illustrator 27.8.1, SVG Export Plug-In . SVG Version: 6.00 Build 0)  -->
<svg version="1.1" id="Layer_1" xmlns="http://www.w3.org/2000/svg" xmlns:xlink="http://www.w3.org/1999/xlink" x="0px" y="0px"
	 viewBox="0 0 265 213" style="enable-background:new 0 0 265 213;" xml:space="preserve">
<style type="text/css">
	.st0{fill-rule:evenodd;clip-rule:evenodd;fill:url(#SVGID_1_);}
	.st1{fill:url(#SVGID_00000065778467777060276270000013812983111917939903_);}
	.st2{fill:url(#SVGID_00000085932191601185895680000014046464233615700657_);fill-opacity:0.2;}
	.st3{fill:url(#SVGID_00000166652678636553691000000003016167797480098986_);fill-opacity:0.2;}
	.st4{fill:url(#SVGID_00000000910168010836819160000017226469374675459244_);}
	.st5{fill:#D8E0DF;}
	.st6{fill:#FCFCFC;}
	.st7{fill:url(#SVGID_00000160884400116486196740000003579823436365870004_);fill-opacity:0.5;}
	.st8{fill:url(#SVGID_00000011753661021909687260000007628174956686804119_);fill-opacity:0.5;}
	.st9{fill:url(#SVGID_00000180332029945053573850000006821628686731321008_);fill-opacity:0.5;}
	.st10{fill:#F9F9F9;}
	.st11{fill:url(#SVGID_00000011730321211949024050000003354099067378610111_);}
	.st12{fill:url(#SVGID_00000018935978639669134630000006070833865253527719_);fill-opacity:0.2;}
	.st13{fill:url(#SVGID_00000058559794380106217670000014118775700214747560_);}
	.st14{fill:url(#SVGID_00000090284460814568855360000001030351537691973014_);}
	.st15{fill:url(#SVGID_00000062193061066247699520000010739708865649433256_);fill-opacity:0.2;}
	.st16{fill:#A4EA05;}
	.st17{fill:#F5F9DD;}
	.st18{fill:url(#SVGID_00000076561880551054447700000000113159596391028903_);}
	.st19{fill-rule:evenodd;clip-rule:evenodd;fill:#F9FAE1;}
	.st20{fill-rule:evenodd;clip-rule:evenodd;fill:url(#SVGID_00000101794554833462894830000018343744879588912030_);}
	.st21{fill-rule:evenodd;clip-rule:evenodd;fill:#F5F9DD;}
	.st22{fill-rule:evenodd;clip-rule:evenodd;fill:url(#SVGID_00000139294379132589629750000008898879951356219286_);}
	.st23{fill:#D6E35E;}
	.st24{fill:#D6E651;}
	.st25{fill:url(#SVGID_00000144304275437322430960000011473271777244710823_);}
	.st26{fill-rule:evenodd;clip-rule:evenodd;fill:#D6E35E;}
	.st27{opacity:0.5;fill:url(#SVGID_00000065776470632634003860000011611885543555005349_);enable-background:new    ;}
	.st28{opacity:0.5;fill:url(#SVGID_00000156546148441660006820000012081196435468489346_);enable-background:new    ;}
</style>
<linearGradient id="SVGID_1_" gradientUnits="userSpaceOnUse" x1="127.8451" y1="323.6152" x2="127.8451" y2="583.9862" gradientTransform="matrix(1 0 0 1 0 -298)">
	<stop  offset="0.32" style="stop-color:#D6E651"/>
	<stop  offset="0.89" style="stop-color:#F0F4C1"/>
</linearGradient>
<path class="st0" d="M140.8,37.2c-8-4.6-17.9-4.6-26,0L28.2,87.3c-8,4.6-13,13.2-13,22.5V210c0,1,0.1,2,0.2,3h224.8
	c0.1-1,0.2-2,0.2-3V109.8c0-9.3-5-17.9-13-22.5C227.4,87.3,140.8,37.2,140.8,37.2z"/>
<linearGradient id="SVGID_00000112624762740085934320000004188695982450823311_" gradientUnits="userSpaceOnUse" x1="116.0508" y1="395.0094" x2="116.0508" y2="445.8008" gradientTransform="matrix(1 0 0 1 0 -298)">
	<stop  offset="0" style="stop-color:#90A00B"/>
	<stop  offset="1" style="stop-color:#586000"/>
</linearGradient>
<path style="fill:url(#SVGID_00000112624762740085934320000004188695982450823311_);" d="M117.6,132l-2,15.8l19.5-13.5l-10.7-22.2
	l-23.5-13.7c-1.2-0.7-2.8-0.2-3.3,1.2c-1.1,2.9-0.3,6.2,1.8,8.4l12.9,13.2L117.6,132L117.6,132z"/>
<radialGradient id="SVGID_00000173158809110153130910000006755313205197199244_" cx="-246.0975" cy="35.209" r="1.0006" gradientTransform="matrix(10.9054 -9.0565 7.0085 8.4683 2551.6016 -2405.7705)" gradientUnits="userSpaceOnUse">
	<stop  offset="0" style="stop-color:#FFFFFF"/>
	<stop  offset="1" style="stop-color:#4BFC4B;stop-opacity:0"/>
</radialGradient>
<path style="fill:url(#SVGID_00000173158809110153130910000006755313205197199244_);fill-opacity:0.2;" d="M117.6,132l-2,15.8
	l19.5-13.5l-10.7-22.2l-23.5-13.7c-1.2-0.7-2.8-0.2-3.3,1.2c-1.1,2.9-0.3,6.2,1.8,8.4l12.9,13.2L117.6,132L117.6,132z"/>
<radialGradient id="SVGID_00000144322153892152731390000016488316825883087526_" cx="-263.6589" cy="2.2994" r="1.0006" gradientTransform="matrix(-12.0828 -18.1554 14.0376 -9.3744 -3111.7532 -4653.5049)" gradientUnits="userSpaceOnUse">
	<stop  offset="0.51" style="stop-color:#FFFFFF"/>
	<stop  offset="1" style="stop-color:#4BFC4B;stop-opacity:0"/>
</radialGradient>
<path style="fill:url(#SVGID_00000144322153892152731390000016488316825883087526_);fill-opacity:0.2;" d="M117.6,132l-2,15.8
	l19.5-13.5l-10.7-22.2l-23.5-13.7c-1.2-0.7-2.8-0.2-3.3,1.2c-1.1,2.9-0.3,6.2,1.8,8.4l12.9,13.2L117.6,132L117.6,132z"/>
<linearGradient id="SVGID_00000121251793031303814460000004794653645354981539_" gradientUnits="userSpaceOnUse" x1="139.2726" y1="373.4961" x2="139.2726" y2="440.0872" gradientTransform="matrix(1 0 0 1 0 -298)">
	<stop  offset="0" style="stop-color:#CFDC2C"/>
	<stop  offset="1" style="stop-color:#586000"/>
</linearGradient>
<path style="fill:url(#SVGID_00000121251793031303814460000004794653645354981539_);" d="M124,104.4l5.7,22.5l8.4,15.1l27.2-20.5
	l-16.1-46.1l-35.9,2L124,104.4L124,104.4z"/>
<path class="st5" d="M116.7,1l57.1,15.2l-23.9,90L92.8,91l23.5-90H116.7z"/>
<rect x="86.2" y="24.1" transform="matrix(0.2571 -0.9664 0.9664 0.2571 46.8267 168.1302)" class="st6" width="93.1" height="59.1"/>
<radialGradient id="SVGID_00000127002397358546872260000003318616804289610636_" cx="-243.7846" cy="-5.1401" r="1.0006" gradientTransform="matrix(-27.5271 94.1137 -59.7227 -17.5281 -6881.4263 22893.582)" gradientUnits="userSpaceOnUse">
	<stop  offset="0" style="stop-color:#FCFCFC"/>
	<stop  offset="1" style="stop-color:#DAE2E1;stop-opacity:0"/>
</radialGradient>
<polygon style="fill:url(#SVGID_00000127002397358546872260000003318616804289610636_);fill-opacity:0.5;" points="92.3,91 116.2,1 
	173.3,16.2 149.3,106.2 "/>
<radialGradient id="SVGID_00000015352704233657138700000017447635210493948293_" cx="-245.2488" cy="-8.7191" r="1.0006" gradientTransform="matrix(-41.614 43.363 -31.7379 -30.5624 -10325.7012 10463.8203)" gradientUnits="userSpaceOnUse">
	<stop  offset="0" style="stop-color:#AABCB9"/>
	<stop  offset="0.79" style="stop-color:#000000;stop-opacity:0"/>
</radialGradient>
<polygon style="fill:url(#SVGID_00000015352704233657138700000017447635210493948293_);fill-opacity:0.5;" points="92.3,91 116.2,1 
	173.3,16.2 149.3,106.2 "/>
<linearGradient id="SVGID_00000141434076780559999940000004280430258144896644_" gradientUnits="userSpaceOnUse" x1="258.3601" y1="296.4409" x2="163.8817" y2="244.2307" gradientTransform="matrix(0.9663 0.2575 -0.2575 0.9663 -4.3283 -264.5543)">
	<stop  offset="0" style="stop-color:#FFFFFF"/>
	<stop  offset="0.15" style="stop-color:#EBEFEF"/>
	<stop  offset="0.26" style="stop-color:#F3F6F6"/>
	<stop  offset="0.35" style="stop-color:#EBEFEF"/>
	<stop  offset="0.44" style="stop-color:#D4DEDD"/>
	<stop  offset="0.59" style="stop-color:#EDF1F1"/>
	<stop  offset="0.74" style="stop-color:#FFFFFF"/>
	<stop  offset="0.86" style="stop-color:#E5EBEA"/>
	<stop  offset="1" style="stop-color:#F6F8F8"/>
</linearGradient>
<polygon style="fill:url(#SVGID_00000141434076780559999940000004280430258144896644_);fill-opacity:0.5;" points="92.3,91 116.2,1 
	173.3,16.2 149.3,106.2 "/>
<rect x="212" y="66.9" transform="matrix(0.9662 -0.2579 0.2579 0.9662 -18.3758 63.8714)" class="st6" width="44.5" height="70.1"/>
<rect x="-3.6" y="72.2" transform="matrix(0.2571 -0.9664 0.9664 0.2571 -68.6761 92.1829)" class="st10" width="58.4" height="37.1"/>
<linearGradient id="SVGID_00000150812284712482300860000016971288016456912275_" gradientUnits="userSpaceOnUse" x1="61.509" y1="391.8546" x2="169.9068" y2="477.1516" gradientTransform="matrix(1 0 0 1 0 -298)">
	<stop  offset="0.1" style="stop-color:#C2D80F"/>
	<stop  offset="1" style="stop-color:#CADF0E"/>
</linearGradient>
<path style="fill:url(#SVGID_00000150812284712482300860000016971288016456912275_);" d="M141.5,185.8L130.5,213H84.1l4.2-29.2
	c0.9-6.6,3.7-12.8,7.9-17.9l18.3-22.1l40-20.5v-22.9l-8.9-26.4c-1.4-4.1,1-8.5,5.2-9.5c1.6-0.4,3.2,0.4,3.9,1.9l16.3,35.5l4,43.3
	c0.3,2.8-0.7,5.7-2.6,7.7L141.5,185.8L141.5,185.8z"/>
<radialGradient id="SVGID_00000033355017636951356380000007938050164889462956_" cx="-256.9195" cy="-4.3546" r="1.0006" gradientTransform="matrix(-28.5267 -17.4838 15.1458 -24.7968 -7131.604 -4524.2666)" gradientUnits="userSpaceOnUse">
	<stop  offset="0" style="stop-color:#FFFFFF"/>
	<stop  offset="1" style="stop-color:#FFFFFF;stop-opacity:0"/>
</radialGradient>
<path style="fill:url(#SVGID_00000033355017636951356380000007938050164889462956_);fill-opacity:0.2;" d="M141.5,185.8l-11.1,27.6
	l-45.9-0.9l3.9-28.6c0.9-6.7,3.7-13,8-18.1l18.3-22l40-20.5v-22.9L145.7,74c-1.4-4.1,1-8.5,5.2-9.5c1.6-0.4,3.2,0.4,3.9,1.9
	l16.3,35.5l4,43.3c0.3,2.8-0.7,5.7-2.6,7.7L141.5,185.8L141.5,185.8z"/>
<linearGradient id="SVGID_00000035517827483848946240000012096341474794442424_" gradientUnits="userSpaceOnUse" x1="159.8064" y1="478.4631" x2="107.3252" y2="420.2675" gradientTransform="matrix(1 0 0 1 0 -298)">
	<stop  offset="0.14" style="stop-color:#D0E415"/>
	<stop  offset="0.74" style="stop-color:#CADF0E"/>
</linearGradient>
<path style="fill:url(#SVGID_00000035517827483848946240000012096341474794442424_);" d="M151.2,111.5l-1,13.8
	c-1.3,18.5-10.8,35.5-25.9,46.2l-25.8,18.3v-13.1l16.5-33.3L128,134l3.4-20.2l1.7-17.1c0.2-2,1-3.9,2.2-5.5l1.5-1.9
	c1.6-2.1,4.3-3,6.8-2.4c2.7,0.6,4.8,2.9,5.2,5.7L151.2,111.5L151.2,111.5z"/>
<linearGradient id="SVGID_00000000195582857255480040000009432320502384074937_" gradientUnits="userSpaceOnUse" x1="159.8064" y1="478.4631" x2="107.3252" y2="420.2675" gradientTransform="matrix(1 0 0 1 0 -298)">
	<stop  offset="0.14" style="stop-color:#D0E415"/>
	<stop  offset="0.74" style="stop-color:#CADF0E"/>
</linearGradient>
<path style="fill:url(#SVGID_00000000195582857255480040000009432320502384074937_);" d="M151.2,111.5l-1,13.8
	c-1.3,18.5-10.8,35.5-25.9,46.2l-25.8,18.3v-13.1l16.5-33.3L128,134l3.4-20.2l1.7-17.1c0.2-2,1-3.9,2.2-5.5l1.5-1.9
	c1.6-2.1,4.3-3,6.8-2.4c2.7,0.6,4.8,2.9,5.2,5.7L151.2,111.5L151.2,111.5z"/>
<radialGradient id="SVGID_00000166652375541753374520000015784326842031745927_" cx="-257.637" cy="-3.7515" r="1.0006" gradientTransform="matrix(-26.5096 -17.4766 16.7497 -25.4942 -6633.3506 -4502.3262)" gradientUnits="userSpaceOnUse">
	<stop  offset="0.51" style="stop-color:#FFFFFF"/>
	<stop  offset="1" style="stop-color:#4BFC4B;stop-opacity:0"/>
</radialGradient>
<path style="fill:url(#SVGID_00000166652375541753374520000015784326842031745927_);fill-opacity:0.2;" d="M151.2,111.5l-1,13.8
	c-1.3,18.5-10.8,35.5-25.9,46.2l-25.8,18.3v-13.1l16.5-33.3L128,134l3.4-20.2l1.7-17.1c0.2-2,1-3.9,2.2-5.5l1.5-1.9
	c1.6-2.1,4.3-3,6.8-2.4c2.7,0.6,4.8,2.9,5.2,5.7L151.2,111.5L151.2,111.5z"/>
<path class="st16" d="M138.4,98.5c-1.3-1.1-1.4-7.1-0.3-10.8c6.4-3.4,9.4,1.3,10.4,2c0.8,0.5-0.3,6.5-1,9.4
	C144.4,100,139.8,99.6,138.4,98.5z"/>
<path class="st17" d="M112.2,55c13.7-2.1,19.7-6.9,21-9c1.8-1.1,4.9-2.1,3.1,2.6c-2.2,5.9-14.2,12-26.9,11.5
	c-12.8-0.4-15.1,7.5-21.8,6.6C81,65.8,68.8,78,76.4,68.1S95.1,57.6,112.2,55L112.2,55z"/>
<linearGradient id="SVGID_00000127045064235539914270000003476429792992077956_" gradientUnits="userSpaceOnUse" x1="114.5983" y1="349.6953" x2="91.1033" y2="369.8324" gradientTransform="matrix(1 0 0 1 0 -298)">
	<stop  offset="0" style="stop-color:#AEEA25"/>
	<stop  offset="1" style="stop-color:#DAE56D;stop-opacity:0"/>
</linearGradient>
<path style="fill:url(#SVGID_00000127045064235539914270000003476429792992077956_);" d="M112.2,55c13.7-2.1,19.7-6.9,21-9
	c1.8-1.1,4.9-2.1,3.1,2.6c-2.2,5.9-14.2,12-26.9,11.5c-12.8-0.4-15.1,7.5-21.8,6.6C81,65.8,68.8,78,76.4,68.1S95.1,57.6,112.2,55
	L112.2,55z"/>
<path class="st19" d="M85.2,60.9c-3.4,1.7-6.3,3.9-8.8,7.2c-3.9,5.1-2.6,4.3,0.6,2.5c2.9-1.7,7.4-4.3,10.7-3.9
	c2.9,0.4,5-0.9,7.5-2.4c3.2-2,7.1-4.4,14.3-4.1c11.8,0.4,23-4.8,26.3-10.3c-5.7,3.2-14.6,5.5-24,5.2c-1.4,0.2-2.8,0.4-4.2,0.6
	c-3.1,0.5-6,0.9-8.7,1.4c-1.4,0.6-2.6,1.2-3.7,1.8c-2.8,1.4-5.2,2.6-8.5,2.2C86.2,60.9,85.7,60.9,85.2,60.9L85.2,60.9z"/>
<path class="st17" d="M138.4,57.8c6.2-7.8,4.6-11.8,3-12.8c-1,3.8-5.8,11.7-16.8,12.8c-13.8,1.3-27.5,8.7-32.6,12.4
	c-4,3-3.7,10.6-3,14.1c1.6-3.3,4.9-9.2,5.7-7.1c0.8,2.2-1.5,8.7-2.7,11.8c1.3-0.3,5.3-3.7,10.4-14.5
	C108.9,61.2,130.7,67.6,138.4,57.8L138.4,57.8z"/>
<linearGradient id="SVGID_00000101818195476676822590000013149660457414391458_" gradientUnits="userSpaceOnUse" x1="124.7416" y1="357.4126" x2="97.6942" y2="375.794" gradientTransform="matrix(1 0 0 1 0 -298)">
	<stop  offset="0" style="stop-color:#D5E25C"/>
	<stop  offset="1" style="stop-color:#DAE56D"/>
</linearGradient>
<path style="fill-rule:evenodd;clip-rule:evenodd;fill:url(#SVGID_00000101818195476676822590000013149660457414391458_);" d="
	M142.4,46.2c-0.6,1.8-1.8,4-3.9,6.6c-3.5,4.4-9.9,5.5-16.4,6.7c-7.9,1.4-16,2.8-19.5,10.2c-3.4,7.2-6.4,11.1-8.3,13
	c-0.6,2.4-1.5,4.9-2.2,6.5c1.3-0.3,5.3-3.7,10.4-14.5c3.5-7.4,11.6-8.8,19.5-10.2c6.5-1.1,12.9-2.2,16.4-6.7
	C143.2,51.8,143.3,48,142.4,46.2L142.4,46.2z M94.5,77c0.5-2,0.7-3.7,0.3-4.7c-0.8-2.2-4.1,3.8-5.7,7.1c-0.1-0.7-0.2-1.4-0.3-2.3
	c-0.4,2.8-0.1,5.6,0.2,7.4C90.5,81.5,93.4,76.2,94.5,77L94.5,77z"/>
<path class="st21" d="M98.8,61.2c-9.5,1.7-16.5,4.2-21.8,11c-3.9,5.1-2.6,4.3,0.6,2.5c2.9-1.7,7.4-4.3,10.7-3.9
	c0.3,0,0.5,0.1,0.8,0.1c0.4-2.3,1.4-4.3,3.1-5.6C93.7,64.1,96,62.7,98.8,61.2z M107.1,64.2c4.1-2.9,9.6-3.8,15-4.8
	c4.7-0.8,9.3-1.6,12.8-3.6c-4.5,4.7-14.4,8.7-24.8,8.3C109,64.2,108,64.2,107.1,64.2L107.1,64.2z"/>
<linearGradient id="SVGID_00000176024978106496626390000013180734448024721037_" gradientUnits="userSpaceOnUse" x1="109.1727" y1="356.9268" x2="96.9188" y2="376.637" gradientTransform="matrix(1 0 0 1 0 -298)">
	<stop  offset="0" style="stop-color:#D5E25C"/>
	<stop  offset="1" style="stop-color:#DAE56D"/>
</linearGradient>
<path style="fill-rule:evenodd;clip-rule:evenodd;fill:url(#SVGID_00000176024978106496626390000013180734448024721037_);" d="
	M98.8,61.5c-9.5,1.7-16.5,4.2-21.8,11c-3.9,5.1-2.6,4.3,0.6,2.5c2.9-1.7,7.4-4.3,10.7-3.9c0.3,0,0.5,0.1,0.8,0.1
	c0.4-2.3,1.4-4.3,3.1-5.6C93.7,64.5,96,63,98.8,61.5z M107.1,64.6c4.1-2.9,9.6-3.8,15-4.8c4.7-0.8,9.3-1.6,12.8-3.6
	c-4.5,4.7-14.4,8.7-24.8,8.3C109,64.5,108,64.5,107.1,64.6L107.1,64.6z"/>
<ellipse class="st23" cx="140.4" cy="34.6" rx="15.4" ry="15.5"/>
<ellipse class="st24" cx="139.1" cy="34.6" rx="15.4" ry="15.5"/>
<radialGradient id="SVGID_00000088117677846401970390000010735150059310926745_" cx="-252.9425" cy="-4.5604" r="1.0006" gradientTransform="matrix(-44.4683 -13.8229 13.7993 -44.5445 -11016.6191 -3656.2922)" gradientUnits="userSpaceOnUse">
	<stop  offset="0.73" style="stop-color:#F4F7D0"/>
	<stop  offset="1" style="stop-color:#F4F7D0;stop-opacity:0"/>
</radialGradient>
<ellipse style="fill:url(#SVGID_00000088117677846401970390000010735150059310926745_);" cx="139.1" cy="34.6" rx="12.1" ry="12.1"/>
<path class="st26" d="M134.4,45.8c-3.6-2.1-6-6-6-10.5c0-6.7,5.4-12.1,12.1-12.1c1.7,0,3.3,0.3,4.7,1c-1.8-1-3.9-1.6-6.1-1.6
	c-6.7,0-12.1,5.4-12.1,12.1C127,39.7,130,43.9,134.4,45.8z"/>
<linearGradient id="SVGID_00000072980605348366324990000013829820421109826472_" gradientUnits="userSpaceOnUse" x1="78.4592" y1="428.0198" x2="78.4592" y2="567.3759" gradientTransform="matrix(1 0 0 1 0 -298)">
	<stop  offset="0" style="stop-color:#D8E467;stop-opacity:0"/>
	<stop  offset="0.68" style="stop-color:#D3E158"/>
</linearGradient>
<rect x="51.3" y="130" style="opacity:0.5;fill:url(#SVGID_00000072980605348366324990000013829820421109826472_);enable-background:new    ;" width="54.2" height="83"/>
<linearGradient id="SVGID_00000086681304284418528330000013052742848741965990_" gradientUnits="userSpaceOnUse" x1="177.6905" y1="381.9012" x2="177.6905" y2="598.6953" gradientTransform="matrix(1 0 0 1 0 -298)">
	<stop  offset="0" style="stop-color:#F2F7D2;stop-opacity:0"/>
	<stop  offset="0.68" style="stop-color:#D1DE42"/>
</linearGradient>
<rect x="170" y="83.9" style="opacity:0.5;fill:url(#SVGID_00000086681304284418528330000013052742848741965990_);enable-background:new    ;" width="15.3" height="129.1"/>
</svg>
