<?xml version="1.0" encoding="UTF-8"?>
<svg id="Layer_1" data-name="Layer 1" xmlns="http://www.w3.org/2000/svg" xmlns:xlink="http://www.w3.org/1999/xlink" viewBox="0 0 265 213">
  <defs>
    <style>
      .cls-1 {
        fill: url(#linear-gradient-8);
      }

      .cls-1, .cls-2, .cls-3, .cls-4, .cls-5, .cls-6, .cls-7, .cls-8, .cls-9, .cls-10, .cls-11, .cls-12, .cls-13, .cls-14, .cls-15, .cls-16, .cls-17, .cls-18, .cls-19, .cls-20, .cls-21, .cls-22, .cls-23, .cls-24, .cls-25, .cls-26, .cls-27, .cls-28 {
        stroke-width: 0px;
      }

      .cls-1, .cls-4, .cls-9, .cls-13, .cls-17, .cls-22 {
        fill-rule: evenodd;
      }

      .cls-2 {
        fill: url(#linear-gradient-10);
      }

      .cls-2, .cls-3 {
        isolation: isolate;
        opacity: .5;
      }

      .cls-3 {
        fill: url(#linear-gradient-11);
      }

      .cls-4 {
        fill: url(#linear-gradient-9);
      }

      .cls-5 {
        fill: url(#linear-gradient-6);
      }

      .cls-6 {
        fill: #d8e0df;
      }

      .cls-7 {
        fill: #d6e651;
      }

      .cls-8 {
        fill: url(#linear-gradient-5);
      }

      .cls-9 {
        fill: #f9fae1;
      }

      .cls-10 {
        fill: url(#radial-gradient-2);
      }

      .cls-10, .cls-12, .cls-23, .cls-24 {
        fill-opacity: .2;
      }

      .cls-11 {
        fill: url(#radial-gradient-3);
      }

      .cls-11, .cls-25, .cls-27 {
        fill-opacity: .5;
      }

      .cls-12 {
        fill: url(#radial-gradient);
      }

      .cls-13 {
        fill: url(#linear-gradient);
      }

      .cls-14 {
        fill: url(#linear-gradient-2);
      }

      .cls-15, .cls-22 {
        fill: #f5f9dd;
      }

      .cls-16 {
        fill: url(#linear-gradient-7);
      }

      .cls-17, .cls-28 {
        fill: #d6e35e;
      }

      .cls-18 {
        fill: url(#radial-gradient-7);
      }

      .cls-19 {
        fill: url(#linear-gradient-3);
      }

      .cls-20 {
        fill: #a4ea05;
      }

      .cls-21 {
        fill: #f9f9f9;
      }

      .cls-23 {
        fill: url(#radial-gradient-5);
      }

      .cls-24 {
        fill: url(#radial-gradient-6);
      }

      .cls-25 {
        fill: url(#radial-gradient-4);
      }

      .cls-26 {
        fill: #fcfcfc;
      }

      .cls-27 {
        fill: url(#linear-gradient-4);
      }
    </style>
    <linearGradient id="linear-gradient" x1="127.84" y1="189.4" x2="127.84" y2="-70.81" gradientTransform="translate(0 214) scale(1 -1)" gradientUnits="userSpaceOnUse">
      <stop offset=".32" stop-color="#d6e651"/>
      <stop offset=".89" stop-color="#f0f4c1"/>
    </linearGradient>
    <linearGradient id="linear-gradient-2" x1="116.03" y1="118.05" x2="116.03" y2="67.29" gradientTransform="translate(0 214) scale(1 -1)" gradientUnits="userSpaceOnUse">
      <stop offset="0" stop-color="#90a00b"/>
      <stop offset="1" stop-color="#586000"/>
    </linearGradient>
    <radialGradient id="radial-gradient" cx="-123.02" cy="345.43" fx="-123.02" fy="345.43" r="1" gradientTransform="translate(3883.54 1931.17) rotate(-39.66) scale(14.19 -11)" gradientUnits="userSpaceOnUse">
      <stop offset="0" stop-color="#fff"/>
      <stop offset="1" stop-color="#4bfc4b" stop-opacity="0"/>
    </radialGradient>
    <radialGradient id="radial-gradient-2" cx="-131.81" cy="361.83" fx="-131.81" fy="361.83" r="1" gradientTransform="translate(3598.8 -5674.31) rotate(-123.69) scale(21.82 -16.9)" gradientUnits="userSpaceOnUse">
      <stop offset=".51" stop-color="#fff"/>
      <stop offset="1" stop-color="#4bfc4b" stop-opacity="0"/>
    </radialGradient>
    <linearGradient id="linear-gradient-3" x1="139.27" y1="139.56" x2="139.27" y2="73" gradientTransform="translate(0 214) scale(1 -1)" gradientUnits="userSpaceOnUse">
      <stop offset="0" stop-color="#cfdc2c"/>
      <stop offset="1" stop-color="#586000"/>
    </linearGradient>
    <radialGradient id="radial-gradient-3" cx="-121.9" cy="365.57" fx="-121.9" fy="365.57" r="1" gradientTransform="translate(-11243.75 -23024.42) rotate(-178.59) scale(98.07 -62.34)" gradientUnits="userSpaceOnUse">
      <stop offset="0" stop-color="#fcfcfc"/>
      <stop offset="1" stop-color="#dae2e1" stop-opacity="0"/>
    </radialGradient>
    <radialGradient id="radial-gradient-4" cx="-122.63" cy="367.35" fx="-122.63" fy="367.35" r="1" gradientTransform="translate(1485.56 -17659.58) rotate(-151.05) scale(60.15 -44.1)" gradientUnits="userSpaceOnUse">
      <stop offset="0" stop-color="#aabcb9"/>
      <stop offset=".79" stop-color="#000" stop-opacity="0"/>
    </radialGradient>
    <linearGradient id="linear-gradient-4" x1="223.87" y1="179.87" x2="129.41" y2="232.07" gradientTransform="translate(-71.41 -127.33) rotate(90) scale(1 -1)" gradientUnits="userSpaceOnUse">
      <stop offset="0" stop-color="#fff"/>
      <stop offset=".15" stop-color="#ebefef"/>
      <stop offset=".26" stop-color="#f3f6f6"/>
      <stop offset=".35" stop-color="#ebefef"/>
      <stop offset=".44" stop-color="#d4dedd"/>
      <stop offset=".59" stop-color="#edf1f1"/>
      <stop offset=".74" stop-color="#fff"/>
      <stop offset=".86" stop-color="#e5ebea"/>
      <stop offset="1" stop-color="#f6f8f8"/>
    </linearGradient>
    <linearGradient id="linear-gradient-5" x1="61.57" y1="121.17" x2="169.87" y2="35.95" gradientTransform="translate(0 214) scale(1 -1)" gradientUnits="userSpaceOnUse">
      <stop offset=".1" stop-color="#c2d80f"/>
      <stop offset="1" stop-color="#cadf0e"/>
    </linearGradient>
    <radialGradient id="radial-gradient-5" cx="-128.45" cy="365.16" fx="-128.45" fy="365.16" r="1" gradientTransform="translate(2001.08 -11226.02) rotate(-148.54) scale(33.5 -29.07)" gradientUnits="userSpaceOnUse">
      <stop offset="0" stop-color="#fff"/>
      <stop offset="1" stop-color="#fff" stop-opacity="0"/>
    </radialGradient>
    <linearGradient id="linear-gradient-6" x1="159.78" y1="34.65" x2="107.34" y2="92.8" gradientTransform="translate(0 214) scale(1 -1)" gradientUnits="userSpaceOnUse">
      <stop offset=".14" stop-color="#d0e415"/>
      <stop offset=".74" stop-color="#cadf0e"/>
    </linearGradient>
    <radialGradient id="radial-gradient-6" cx="-128.81" cy="364.86" fx="-128.81" fy="364.86" r="1" gradientTransform="translate(2834.89 -11458.1) rotate(-146.65) scale(31.79 -30.52)" xlink:href="#radial-gradient-2"/>
    <linearGradient id="linear-gradient-7" x1="114.57" y1="163.35" x2="91.06" y2="143.2" gradientTransform="translate(0 214) scale(1 -1)" gradientUnits="userSpaceOnUse">
      <stop offset="0" stop-color="#aeea25"/>
      <stop offset="1" stop-color="#dae56d" stop-opacity="0"/>
    </linearGradient>
    <linearGradient id="linear-gradient-8" x1="124.73" y1="155.63" x2="97.67" y2="137.24" gradientTransform="translate(0 214) scale(1 -1)" gradientUnits="userSpaceOnUse">
      <stop offset="0" stop-color="#d5e25c"/>
      <stop offset="1" stop-color="#dae56d"/>
    </linearGradient>
    <linearGradient id="linear-gradient-9" x1="109.14" y1="156.12" x2="96.88" y2="136.4" xlink:href="#linear-gradient-8"/>
    <radialGradient id="radial-gradient-7" cx="-126.47" cy="365.27" fx="-126.47" fy="365.27" r="1" gradientTransform="translate(-416.04 -17976.74) rotate(-162.76) scale(46.64 -46.64)" gradientUnits="userSpaceOnUse">
      <stop offset=".73" stop-color="#f4f7d0"/>
      <stop offset="1" stop-color="#f4f7d0" stop-opacity="0"/>
    </radialGradient>
    <linearGradient id="linear-gradient-10" x1="78.4" y1="85.06" x2="78.4" y2="-54.21" gradientTransform="translate(0 214) scale(1 -1)" gradientUnits="userSpaceOnUse">
      <stop offset="0" stop-color="#d8e467" stop-opacity="0"/>
      <stop offset=".68" stop-color="#d3e158"/>
    </linearGradient>
    <linearGradient id="linear-gradient-11" x1="177.74" y1="131.15" x2="177.74" y2="-85.51" gradientTransform="translate(0 214) scale(1 -1)" gradientUnits="userSpaceOnUse">
      <stop offset="0" stop-color="#f2f7d2" stop-opacity="0"/>
      <stop offset=".68" stop-color="#d1de42"/>
    </linearGradient>
  </defs>
  <path class="cls-13" d="m140.84,36.15c-8.04-4.64-17.96-4.64-26,0L28.13,86.21c-8.04,4.64-13,13.23-13,22.52v100.12c0,1.02.06,2.03.18,3.03h225.06c.12-1,.18-2.01.18-3.03v-100.12c0-9.29-4.96-17.87-13-22.52l-86.71-50.06Z"/>
  <path class="cls-14" d="m117.59,130.91l-2.02,15.8,19.5-13.45-10.76-22.19-23.49-13.73c-1.25-.73-2.85-.15-3.34,1.21-1.06,2.93-.35,6.21,1.83,8.43l12.9,13.17,5.38,10.76Z"/>
  <path class="cls-12" d="m117.59,130.91l-2.02,15.8,19.5-13.45-10.76-22.19-23.49-13.73c-1.25-.73-2.85-.15-3.34,1.21-1.06,2.93-.35,6.21,1.83,8.43l12.9,13.17,5.38,10.76Z"/>
  <path class="cls-10" d="m117.59,130.91l-2.02,15.8,19.5-13.45-10.76-22.19-23.49-13.73c-1.25-.73-2.85-.15-3.34,1.21-1.06,2.93-.35,6.21,1.83,8.43l12.9,13.17,5.38,10.76Z"/>
  <path class="cls-19" d="m123.98,103.35l5.72,22.52,8.4,15.13,27.23-20.5-16.13-46.05-35.97,2.02,10.76,26.89Z"/>
  <path class="cls-6" d="m116.66,0l57.16,15.22-23.95,89.91-57.16-15.22L116.25,0h.41Z"/>
  <rect class="cls-26" x="86.23" y="23" width="93.05" height="59.15" transform="translate(47.78 167.32) rotate(-75.08)"/>
  <rect class="cls-11" x="86.23" y="23" width="93.05" height="59.15" transform="translate(47.78 167.32) rotate(-75.08)"/>
  <rect class="cls-25" x="86.23" y="23" width="93.05" height="59.15" transform="translate(47.78 167.32) rotate(-75.08)"/>
  <rect class="cls-27" x="86.23" y="23" width="93.05" height="59.15" transform="translate(47.78 167.32) rotate(-75.08)"/>
  <rect class="cls-26" x="212.13" y="65.9" width="44.55" height="70.08" transform="translate(-18.08 63.74) rotate(-14.92)"/>
  <rect class="cls-21" x="-3.69" y="71.14" width="58.36" height="37.1" transform="translate(-67.73 91.24) rotate(-75.08)"/>
  <path class="cls-8" d="m141.46,184.7l-10.94,27.19h-46.48l4.21-29.23c.95-6.58,3.7-12.77,7.95-17.89l18.37-22.1,40-20.5v-22.86l-8.89-26.41c-1.37-4.07,1-8.45,5.16-9.52,1.57-.41,3.21.37,3.9,1.85l16.3,35.43,3.96,43.27c.26,2.84-.71,5.66-2.65,7.74l-30.89,33.03Z"/>
  <path class="cls-23" d="m141.46,184.7l-11.09,27.56-45.98-.91,3.91-28.54c.91-6.67,3.68-12.95,7.99-18.13l18.29-21.99,40-20.5v-22.86l-8.89-26.41c-1.37-4.07,1-8.45,5.16-9.52,1.57-.41,3.21.37,3.89,1.85l16.31,35.43,3.96,43.27c.26,2.84-.71,5.66-2.65,7.74l-30.89,33.03Z"/>
  <path class="cls-5" d="m151.2,110.41l-.97,13.78c-1.3,18.52-10.83,35.48-25.97,46.22l-25.83,18.33v-13.11l16.47-33.28,13.11-9.41,3.36-20.17,1.71-17.11c.2-2,.96-3.9,2.2-5.48l1.52-1.94c1.61-2.06,4.27-3,6.81-2.41,2.74.63,4.8,2.91,5.16,5.7l2.43,18.88Z"/>
  <path class="cls-5" d="m151.2,110.41l-.97,13.78c-1.3,18.52-10.83,35.48-25.97,46.22l-25.83,18.33v-13.11l16.47-33.28,13.11-9.41,3.36-20.17,1.71-17.11c.2-2,.96-3.9,2.2-5.48l1.52-1.94c1.61-2.06,4.27-3,6.81-2.41,2.74.63,4.8,2.91,5.16,5.7l2.43,18.88Z"/>
  <path class="cls-24" d="m151.2,110.41l-.97,13.78c-1.3,18.52-10.83,35.48-25.97,46.22l-25.83,18.33v-13.11l16.47-33.28,13.11-9.41,3.36-20.17,1.71-17.11c.2-2,.96-3.9,2.2-5.48l1.52-1.94c1.61-2.06,4.27-3,6.81-2.41,2.74.63,4.8,2.91,5.16,5.7l2.43,18.88Z"/>
  <path class="cls-20" d="m138.43,97.48c-1.35-1.08-1.45-7.06-.33-10.76,6.39-3.36,9.41,1.34,10.42,2.02.81.54-.34,6.5-1.01,9.41-3.14.78-7.73.4-9.08-.67Z"/>
  <path class="cls-15" d="m112.18,53.95c13.67-2.07,19.7-6.87,21.01-9.01,1.78-1.09,4.9-2.08,3.15,2.63-2.19,5.89-14.17,11.95-26.96,11.54-12.78-.41-15.14,7.48-21.81,6.58-6.67-.91-18.84,11.22-11.25,1.4s18.78-10.55,35.87-13.14Z"/>
  <path class="cls-16" d="m112.18,53.95c13.67-2.07,19.7-6.87,21.01-9.01,1.78-1.09,4.9-2.08,3.15,2.63-2.19,5.89-14.17,11.95-26.96,11.54-12.78-.41-15.14,7.48-21.81,6.58-6.67-.91-18.84,11.22-11.25,1.4s18.78-10.55,35.87-13.14Z"/>
  <path class="cls-9" d="m85.14,59.91c-3.4,1.66-6.31,3.91-8.83,7.17-3.92,5.07-2.57,4.29.57,2.47,2.94-1.7,7.45-4.31,10.68-3.87,2.92.4,5.01-.89,7.51-2.43,3.22-1.98,7.11-4.38,14.3-4.14,11.86.38,23.03-4.8,26.33-10.25-5.7,3.18-14.63,5.47-24.04,5.17-1.43.22-2.81.42-4.16.61-3.11.45-6,.88-8.7,1.35-1.38.56-2.59,1.18-3.73,1.76-2.81,1.43-5.16,2.63-8.47,2.21-.47-.06-.96-.07-1.47-.05Z"/>
  <path class="cls-15" d="m138.43,56.81c6.18-7.8,4.59-11.77,3.02-12.77-1.01,3.81-5.78,11.7-16.81,12.77-13.78,1.34-27.56,8.74-32.61,12.44-4.03,2.96-3.7,10.64-3.03,14.12,1.57-3.25,4.91-9.21,5.71-7.06.81,2.15-1.46,8.74-2.69,11.77,1.34-.34,5.31-3.7,10.42-14.45,6.39-13.45,28.24-7.06,35.97-16.81Z"/>
  <path class="cls-1" d="m142.41,45.14c-.61,1.79-1.82,3.99-3.91,6.63-3.5,4.41-9.88,5.52-16.41,6.65-7.92,1.38-16.06,2.79-19.56,10.16-3.44,7.24-6.36,11.13-8.31,13-.62,2.38-1.54,4.92-2.19,6.5,1.34-.34,5.31-3.7,10.42-14.45,3.5-7.37,11.64-8.78,19.56-10.16,6.53-1.14,12.92-2.24,16.41-6.65,4.82-6.08,4.92-9.83,3.98-11.67Zm-47.95,30.77c.47-1.95.7-3.72.35-4.65-.81-2.15-4.15,3.81-5.71,7.06-.12-.65-.24-1.44-.31-2.31-.36,2.76-.1,5.6.24,7.36,1.43-2.96,4.33-8.17,5.44-7.45Z"/>
  <path class="cls-22" d="m98.77,60.15c-9.52,1.72-16.52,4.16-21.79,10.97-3.91,5.07-2.57,4.29.57,2.47,2.94-1.7,7.45-4.31,10.68-3.87.28.04.55.06.81.07.45-2.25,1.37-4.33,3.07-5.58,1.51-1.11,3.81-2.55,6.66-4.06Zm8.31,3.05c4.07-2.87,9.59-3.83,15.01-4.77,4.68-.81,9.27-1.61,12.79-3.61-4.47,4.68-14.39,8.67-24.83,8.33-1.06-.03-2.04-.01-2.97.06Z"/>
  <path class="cls-4" d="m98.76,60.47c-9.52,1.72-16.52,4.16-21.79,10.97-3.91,5.07-2.57,4.29.57,2.47,2.94-1.7,7.45-4.31,10.68-3.87.28.04.55.06.81.07.45-2.25,1.37-4.33,3.07-5.58,1.51-1.11,3.81-2.55,6.66-4.06Zm8.31,3.05c4.07-2.87,9.59-3.83,15.01-4.77,4.67-.81,9.27-1.61,12.79-3.61-4.47,4.68-14.38,8.67-24.83,8.33-1.06-.03-2.04-.01-2.97.06Z"/>
  <circle class="cls-28" cx="140.45" cy="33.62" r="15.46"/>
  <circle class="cls-7" cx="139.1" cy="33.62" r="15.46"/>
  <circle class="cls-18" cx="139.1" cy="33.62" r="12.1"/>
  <path class="cls-17" d="m134.37,44.76c-3.6-2.1-6.03-6-6.03-10.47,0-6.68,5.42-12.1,12.1-12.1,1.68,0,3.28.34,4.73.96-1.79-1.04-3.86-1.63-6.07-1.63-6.68,0-12.1,5.42-12.1,12.1,0,5.01,3.04,9.3,7.37,11.14Z"/>
  <rect class="cls-2" x="51.26" y="128.94" width="54.28" height="82.95"/>
  <rect class="cls-3" x="170.06" y="82.85" width="15.36" height="129.04"/>
</svg>